<?xml version="1.0" encoding="iso-8859-1"?>
<!-- Generator: Adobe Illustrator 18.1.1, SVG Export Plug-In . SVG Version: 6.00 Build 0)  -->
<svg xmlns="http://www.w3.org/2000/svg" xmlns:xlink="http://www.w3.org/1999/xlink" version="1.1" id="Capa_1" x="0px" y="0px" viewBox="0 0 20.785 20.785" style="enable-background:new 0 0 20.785 20.785;" xml:space="preserve" width="512px" height="512px">
<g>
	<path d="M13.538,10.509c0-0.12-0.02-0.235-0.034-0.35V6.445c0.471-0.104,0.823-0.522,0.823-1.024   c0-0.581-0.47-1.05-1.049-1.05H10.34c-0.114-0.595-0.612-1.053-1.241-1.053c-0.628,0-1.127,0.458-1.241,1.053H7.507   c-0.58,0-1.05,0.469-1.05,1.05c0,0.502,0.354,0.92,0.824,1.024v3.714c-0.015,0.114-0.036,0.229-0.036,0.35l-4.647,7.62   c0,1.467,1.188,2.656,2.656,2.656h10.276c1.467,0,2.656-1.189,2.656-2.656L13.538,10.509z M7.123,16.645   c-0.61,0-1.105-0.495-1.105-1.104c0-0.61,0.495-1.105,1.105-1.105c0.609,0,1.104,0.495,1.104,1.105   C8.229,16.15,7.734,16.645,7.123,16.645z M10.309,18.652c-0.539,0-0.975-0.437-0.975-0.976c0-0.538,0.437-0.975,0.975-0.975   s0.975,0.437,0.975,0.975C11.285,18.215,10.848,18.652,10.309,18.652z M10.916,14.459c-0.899,0-1.628-0.729-1.628-1.627   s0.729-1.628,1.628-1.628c0.898,0,1.627,0.729,1.627,1.628S11.814,14.459,10.916,14.459z M12.101,1.588   c0.483,0,0.875,0.392,0.875,0.875s-0.392,0.875-0.875,0.875s-0.875-0.392-0.875-0.875S11.618,1.588,12.101,1.588z M9.578,0   c0.426,0,0.771,0.345,0.771,0.771s-0.345,0.771-0.771,0.771S8.807,1.197,8.807,0.771S9.153,0,9.578,0z" fill="#de4f4f"/>
</g>
<g>
</g>
<g>
</g>
<g>
</g>
<g>
</g>
<g>
</g>
<g>
</g>
<g>
</g>
<g>
</g>
<g>
</g>
<g>
</g>
<g>
</g>
<g>
</g>
<g>
</g>
<g>
</g>
<g>
</g>
</svg>
