<?xml version="1.0" encoding="iso-8859-1"?>
<!-- Generator: Adobe Illustrator 16.0.0, SVG Export Plug-In . SVG Version: 6.00 Build 0)  -->
<!DOCTYPE svg PUBLIC "-//W3C//DTD SVG 1.1//EN" "http://www.w3.org/Graphics/SVG/1.1/DTD/svg11.dtd">
<svg version="1.1" id="Capa_1" xmlns="http://www.w3.org/2000/svg" xmlns:xlink="http://www.w3.org/1999/xlink" x="0px" y="0px"
	 width="395.888px" height="395.888px" viewBox="0 0 395.888 395.888" style="enable-background:new 0 0 395.888 395.888;"
	 xml:space="preserve">
<g>
	<g>
		<g id="Layer_5_94_">
			<g>
				<g>
					<path d="M376.218,395.888c-85.85,0-343.39,0-343.39,0c-12.806,0-23.225-10.42-23.225-23.226c0,0,0-270.572,0-362.068
						c0-14.125,27.869-14.125,27.869,0c0,90.336,0,357.424,0,357.424s254.059,0,338.745,0
						C389.642,368.018,389.642,395.888,376.218,395.888z"/>
				</g>
				<path d="M360.919,350.659c3.832,0,6.968-3.135,6.968-6.967V95.808c0-3.832-3.136-6.968-6.968-6.968h-88.13
					c-3.832,0-6.968,3.136-6.968,6.968v247.884c0,3.832,3.136,6.967,6.968,6.967H360.919z"/>
				<path d="M241.967,350.659c3.832,0,6.969-3.135,6.969-6.967V40.069c0-3.832-3.137-6.967-6.969-6.967h-71.995
					c-3.832,0-6.968,3.135-6.968,6.967v303.625c0,3.832,3.136,6.967,6.968,6.967L241.967,350.659L241.967,350.659z"/>
				<path d="M139.151,350.659c3.832,0,6.967-3.135,6.967-6.967V164.321c0-3.832-3.135-6.968-6.967-6.968H60.766
					c-3.832,0-6.968,3.136-6.968,6.968v179.373c0,3.832,3.136,6.967,6.968,6.967L139.151,350.659L139.151,350.659z"/>
			</g>
		</g>
	</g>
</g>
<g>
</g>
<g>
</g>
<g>
</g>
<g>
</g>
<g>
</g>
<g>
</g>
<g>
</g>
<g>
</g>
<g>
</g>
<g>
</g>
<g>
</g>
<g>
</g>
<g>
</g>
<g>
</g>
<g>
</g>
</svg>
