<?xml version="1.0" encoding="iso-8859-1"?>
<!-- Generator: Adobe Illustrator 19.0.0, SVG Export Plug-In . SVG Version: 6.00 Build 0)  -->
<svg version="1.1" id="Capa_1" xmlns="http://www.w3.org/2000/svg" xmlns:xlink="http://www.w3.org/1999/xlink" x="0px" y="0px"
	 viewBox="0 0 60 60" style="enable-background:new 0 0 60 60;" xml:space="preserve">
<g>
	<g>
		<path d="M59,50.5h-2v-47c0-0.6-0.4-1-1-1h-8c-0.6,0-1,0.4-1,1v7h-2v-5c0-0.6-0.4-1-1-1h-6c-0.6,0-1,0.4-1,1v5h-2v-7
			c0-0.6-0.4-1-1-1h-8c-0.6,0-1,0.4-1,1v7h-2v-5c0-0.6-0.4-1-1-1h-6c-0.6,0-1,0.4-1,1v5h-2v-7c0-0.6-0.4-1-1-1H4c-0.6,0-1,0.4-1,1
			v47H1c-0.6,0-1,0.4-1,1v5c0,0.6,0.4,1,1,1h58c0.6,0,1-0.4,1-1v-5C60,50.9,59.6,50.5,59,50.5z M5,38.5h7v-2H5v-17h11v-2H5v-13h6v6
			H8v2h4h4c0.6,0,1-0.4,1-1v-5h4v4h-2v2h3h4c0.6,0,1-0.4,1-1v-7h6v6h-3v2h4h4c0.6,0,1-0.4,1-1v-5h4v4h-2v2h3h4h4v-2h-3v-6h6v15h-3v2
			h3v15h-7v2h7v12H44v-18c0-3.4-2.6-6-6-6H22c-3.4,0-6,2.6-6,6v18H5V38.5z M18,48.5h5v-2h-5v-9h5v-2h-5v-3c0-2.2,1.8-4,4-4h7v19h2
			v-19h7c2.2,0,4,1.8,4,4v1h-5v2h5v9h-5v2h5v4H18V48.5z M58,55.5H2v-3h2h52h2V55.5z"/>
		<rect x="33" y="40.5" width="2" height="2"/>
		<rect x="25" y="40.5" width="2" height="2"/>
		<rect x="19" y="17.5" width="4" height="2"/>
		<rect x="37" y="19.5" width="12" height="2"/>
		<rect x="8" y="27.5" width="6" height="2"/>
		<rect x="46" y="27.5" width="6" height="2"/>
		<rect x="47" y="44.5" width="4" height="2"/>
		<rect x="9" y="44.5" width="4" height="2"/>
	</g>
</g>
<g>
</g>
<g>
</g>
<g>
</g>
<g>
</g>
<g>
</g>
<g>
</g>
<g>
</g>
<g>
</g>
<g>
</g>
<g>
</g>
<g>
</g>
<g>
</g>
<g>
</g>
<g>
</g>
<g>
</g>
</svg>
