<?xml version="1.0" standalone="no"?>
<!DOCTYPE svg PUBLIC "-//W3C//DTD SVG 20010904//EN"
 "http://www.w3.org/TR/2001/REC-SVG-20010904/DTD/svg10.dtd">
<svg version="1.0" xmlns="http://www.w3.org/2000/svg"
 width="374.000000pt" height="152.000000pt" viewBox="0 0 374.000000 152.000000"
 preserveAspectRatio="xMidYMid meet">

<g transform="translate(0.000000,152.000000) scale(0.100000,-0.100000)"
fill="#000000" stroke="none">
<path d="M445 968 c-3 -13 -4 -108 -3 -213 l3 -190 39 -3 c22 -2 50 -1 63 2
21 6 23 12 23 65 0 42 5 62 17 72 13 11 17 11 21 1 2 -7 9 -18 16 -25 7 -6 15
-20 19 -29 3 -10 11 -18 17 -18 5 0 10 -6 10 -12 0 -7 11 -23 24 -35 19 -19
35 -23 85 -23 72 0 78 12 31 60 -16 17 -30 34 -30 39 0 4 -9 19 -20 32 -77 93
-78 118 -10 187 28 28 50 56 50 62 0 6 7 13 15 16 8 4 15 12 15 20 0 22 -114
19 -140 -3 -11 -10 -20 -21 -20 -25 0 -5 -20 -27 -44 -51 -24 -23 -46 -49 -49
-57 -3 -8 -6 16 -6 53 -1 83 -12 97 -75 97 -39 0 -46 -3 -51 -22z"/>
<path d="M875 968 c-3 -13 -4 -108 -3 -213 l3 -190 39 -3 c22 -2 50 -1 63 2
21 6 23 12 23 66 0 46 3 60 15 60 18 0 55 -30 55 -46 0 -10 11 -25 51 -72 14
-17 139 -14 139 3 0 7 -7 15 -15 19 -8 3 -15 12 -15 20 0 7 -7 16 -15 20 -8 3
-15 12 -15 20 0 8 -7 22 -16 31 -15 14 -14 17 5 34 12 10 21 23 21 29 0 5 7
13 16 16 13 5 16 19 13 79 -5 90 -25 117 -93 124 -25 3 -46 10 -46 14 0 5 -49
9 -110 9 -105 0 -110 -1 -115 -22z m239 -104 c9 -4 16 -18 16 -34 0 -33 -14
-40 -81 -40 l-49 0 0 40 0 40 49 0 c27 0 56 -3 65 -6z"/>
<path d="M1440 980 c0 -5 -7 -10 -15 -10 -29 0 -95 -47 -95 -67 0 -7 -4 -13
-9 -13 -5 0 -15 -25 -22 -56 -10 -44 -10 -68 -1 -112 6 -31 16 -58 21 -61 4
-3 11 -16 15 -28 4 -13 18 -26 32 -29 13 -3 28 -14 33 -23 8 -13 27 -16 111
-16 63 0 103 4 108 11 4 6 17 14 30 18 12 4 22 12 22 17 0 6 11 21 25 34 15
13 29 39 32 59 3 20 10 36 14 36 5 0 9 18 9 40 0 22 -4 40 -9 40 -5 0 -11 13
-14 29 -7 35 -76 108 -111 117 -14 3 -26 10 -26 15 0 5 -34 9 -75 9 -43 0 -75
-4 -75 -10z m90 -99 c0 -5 13 -11 29 -14 18 -4 32 -14 36 -27 3 -11 11 -20 16
-20 5 0 9 -20 9 -45 0 -25 -4 -45 -10 -45 -5 0 -10 -6 -10 -13 0 -47 -108 -68
-150 -29 -49 46 -35 168 21 179 16 3 29 9 29 14 0 5 7 9 15 9 8 0 15 -4 15 -9z"/>
<path d="M1800 775 l0 -215 60 0 60 0 0 215 0 215 -60 0 -60 0 0 -215z"/>
<path d="M1990 775 l0 -215 160 0 160 0 0 55 0 55 -100 0 -100 0 0 160 0 160
-60 0 -60 0 0 -215z"/>
<path d="M2480 982 c0 -4 -19 -13 -43 -19 -29 -8 -48 -20 -57 -37 -7 -14 -17
-26 -21 -26 -4 0 -10 -13 -14 -30 -4 -16 -11 -30 -16 -30 -5 0 -9 -29 -9 -65
0 -36 4 -65 9 -65 5 0 11 -14 15 -30 6 -32 58 -90 81 -90 7 0 15 -6 18 -12 2
-9 32 -13 102 -13 70 0 100 4 103 13 2 6 10 12 17 12 22 0 73 53 80 83 4 15
11 27 16 27 5 0 9 32 9 70 0 40 -4 70 -10 70 -5 0 -10 10 -10 23 0 29 -51 85
-90 98 -16 6 -30 15 -30 20 0 5 -34 9 -75 9 -41 0 -75 -4 -75 -8z m90 -101 c0
-5 13 -12 29 -16 24 -5 31 -14 41 -51 15 -51 0 -124 -25 -124 -7 0 -15 -6 -17
-12 -6 -18 -84 -14 -103 5 -9 9 -23 20 -32 25 -19 11 -24 113 -5 120 7 2 12
10 12 17 0 7 11 16 25 19 14 4 25 11 25 16 0 6 11 10 25 10 14 0 25 -4 25 -9z"/>
<path d="M2835 968 c-3 -13 -4 -108 -3 -213 l3 -190 53 -3 52 -3 0 105 c0 88
3 106 15 106 8 0 15 -4 15 -10 0 -10 7 -19 59 -77 16 -18 32 -41 36 -52 3 -10
12 -22 20 -25 8 -3 15 -12 15 -20 0 -17 50 -30 96 -24 l29 3 3 190 c1 105 0
200 -3 213 -5 19 -12 22 -59 22 -65 0 -66 -2 -66 -116 0 -70 -2 -82 -15 -78
-8 4 -15 11 -15 18 0 6 -12 23 -28 36 -15 14 -33 37 -39 53 -7 15 -17 27 -23
27 -5 0 -10 6 -10 13 0 25 -39 47 -85 47 -38 0 -45 -3 -50 -22z"/>
</g>
</svg>
