<svg id="Layer_1" data-name="Layer 1" xmlns="http://www.w3.org/2000/svg" viewBox="0 0 39.24 42.5"><defs><style>.cls-1{fill:#231f20;}</style></defs><title>Regras</title><path class="cls-1" d="M38,4.32,24.35,0a.9.9,0,0,0-.53,0L9.54,4.5a.88.88,0,0,0-.41.28l14.92,5Zm-15.73,1a1.78,1.78,0,1,1,1.78,1.78A1.78,1.78,0,0,1,22.3,5.35Z"/><path class="cls-1" d="M25,11.31v2.33l6.51,2a.89.89,0,0,1,.63.85V26.65L38.68,24a.89.89,0,0,0,.56-.83V5.76Zm9.81,11a1.78,1.78,0,1,1,1.78-1.78A1.78,1.78,0,0,1,34.78,22.3Zm0-8.92a1.78,1.78,0,1,1,1.78-1.78A1.78,1.78,0,0,1,34.78,13.38Z"/><path class="cls-1" d="M15.43,10.66l7.76,2.43V11.35L8.92,6.59v5.94l6-1.87A.9.9,0,0,1,15.43,10.66Z"/><path class="cls-1" d="M0,35.67a.89.89,0,0,0,.53.82l13.74,6V24.08a.88.88,0,0,1,.05-.26L0,18.25ZM10.7,33a1.78,1.78,0,1,1-1.78,1.78A1.78,1.78,0,0,1,10.7,33ZM5.35,24.08a1.78,1.78,0,1,1-1.78,1.78A1.78,1.78,0,0,1,5.35,24.08Z"/><path class="cls-1" d="M16.05,24.08V42.5l13.74-6a.89.89,0,0,0,.53-.82V18.25L16,23.82A.88.88,0,0,1,16.05,24.08Zm8.92,0a1.78,1.78,0,1,1-1.78,1.78A1.78,1.78,0,0,1,25,24.08ZM22.3,28.54a1.78,1.78,0,1,1-1.78,1.78A1.78,1.78,0,0,1,22.3,28.54ZM19.62,33a1.78,1.78,0,1,1-1.78,1.78A1.78,1.78,0,0,1,19.62,33Z"/><path class="cls-1" d="M15.16,12.44l-14,4.36,14,5.42,13.95-5.42Zm0,7.18a1.78,1.78,0,1,1,1.78-1.78A1.78,1.78,0,0,1,15.16,19.62Z"/></svg>