<?xml version="1.0" encoding="iso-8859-1"?>
<!-- Generator: Adobe Illustrator 19.1.0, SVG Export Plug-In . SVG Version: 6.00 Build 0)  -->
<svg version="1.1" id="Capa_1" xmlns="http://www.w3.org/2000/svg" xmlns:xlink="http://www.w3.org/1999/xlink" x="0px" y="0px"
	 viewBox="0 0 481.059 481.059" style="enable-background:new 0 0 481.059 481.059;" xml:space="preserve">
<g>
	<g id="XMLID_19_">
		<path id="XMLID_23_" d="M312.28,354.413c0-6.9-1-7.9-8.1-7.9c-6.9,0-13.8,0-20.7,0l0,0h-44c-3.2,0-6.4,0-9.6,0l0,0h-36.6l0,0
			c-5.6,0-11.3,0-16.9,0c-5.9,0-7.5,1.5-7.5,7.5c-0.1,10,0.1,20.1,0,30.1c-0.1,6.8,1.6,13.1,6.2,18c5.7,6.1,12.3,11.5,18.2,17.5
			c1,1,1.8,2.2,2.5,3.6h54.2l-53,19.3c0,2.6-0.1,5.2-0.2,7.8c-0.4,7.8,3.2,12.7,9.9,15.8c2.5,1.2,5.4,1.8,7.8,3.2
			c2,1.2,4.2,2.8,5.4,4.8c2.3,3.9,5.3,6.6,10,6.7c7.4,0.1,14.8,0.6,22.2-0.2c3.2-0.3,7.8-2.7,8.8-5.3c1.9-4.7,5.2-6.1,9.2-7.3
			c1.8-0.6,3.6-1.4,5.3-2.3c6.4-3.2,9.9-8,9.5-15.5c-0.4-8.1-0.3-16.2,0.1-24.3c0.1-2,1.5-4.4,3-5.9c5.6-5.5,11.9-10.5,17.3-16.2
			c5.1-5.4,7.5-12.1,7.3-19.8C311.98,374.113,312.28,364.313,312.28,354.413z"/>
		<path id="XMLID_20_" d="M395.48,154.913c0-84.9-68.3-153.9-153-154.9c-85.6-1.1-156.4,68.4-156.9,154.1
			c-0.2,42,16.3,80.2,43.3,108.2c25.3,26.3,39.9,61.1,39.9,97.6v3.9h143.5v-2.6c0-36.8,14.2-72.2,39.7-98.7
			C378.98,234.613,395.48,196.713,395.48,154.913z M143.88,154.913c0-53.3,43.4-96.7,96.7-96.7c12.8,0,23.1,10.3,23.1,23.1
			s-10.4,23.1-23.1,23.1c-27.8,0-50.5,22.6-50.5,50.5c0,12.8-10.4,23.1-23.1,23.1S143.88,167.613,143.88,154.913z"/>
	</g>
</g>
<g>
</g>
<g>
</g>
<g>
</g>
<g>
</g>
<g>
</g>
<g>
</g>
<g>
</g>
<g>
</g>
<g>
</g>
<g>
</g>
<g>
</g>
<g>
</g>
<g>
</g>
<g>
</g>
<g>
</g>
</svg>
