<svg id="Layer_1" data-name="Layer 1" xmlns="http://www.w3.org/2000/svg" viewBox="0 0 42.31 45.78"><defs><style>.cls-1{fill:#010101;}</style></defs><title>Segredos</title><path class="cls-1" d="M39,26h-9.7c.84,0,1.51,1,1.51,2.15,0,0-3.9,10.67-4.73,10.67h-2.9l-.46-2.12c0-.31-.19-5.1-.46-7.31.32,0,.55-.19.55-.37l.64-1.47c0-.21-.34-.38-.77-.38H19.74c-.42,0-.77.17-.77.38L19.61,29c0,.17.23.32.55.37-.27,2.21-.46,7-.46,7.31l-.46,2.12h-3c-.84,0-4.73-10.67-4.73-10.67C11.5,27,12.18,26,13,26H3.32A3.32,3.32,0,0,0,0,29.31L2.21,42.47a3.32,3.32,0,0,0,3.32,3.32H36.78a3.32,3.32,0,0,0,3.32-3.32l2.21-13.15A3.32,3.32,0,0,0,39,26Z"/><path class="cls-1" d="M7.41,15.12a47.58,47.58,0,0,1,5.75.55l.68,2.91a1.64,1.64,0,0,0,1.64,1.64h2.74a1.64,1.64,0,0,0,1.64-1.64V16.86l2.6.49v1.23a1.64,1.64,0,0,0,1.64,1.64h2.46a1.64,1.64,0,0,0,1.64-1.64l.14-.44c3.58.21,6.15-.43,6.75-3,.29-1.24-3.87-3.31-3.87-3.31H11.28S6.13,15.09,7.41,15.12Z"/><path class="cls-1" d="M29.48,9.26S31.3.86,28.28.07c-1.66-.44-7.14,1.31-7.14,1.31S15.84-.35,14.22.07C11.19.86,13,9.26,13,9.26Z"/></svg>