<svg id="Layer_1" data-name="Layer 1" xmlns="http://www.w3.org/2000/svg" viewBox="0 0 39.05 41.75"><defs><style>.cls-1{fill:#231f20;}</style></defs><title>Kahoot</title><path class="cls-1" d="M8,16.29c1.22-1.41,2.38-2.87,3.68-4.2,2-2.07,4.15-4,6.19-6.06a1.49,1.49,0,0,1,1.88-.42c1.66.71,3.35,1.34,5.21,2.07-.35.47-.55.79-.8,1.07-2.34,2.62-4.65,5.26-7.05,7.82a1.74,1.74,0,0,0-.3,1.93q2.42,8.84,4.86,17.68c.14.5.26,1,.44,1.77-2.09,0-4,.05-5.95-.05-.31,0-.71-.71-.84-1.15C14,32.33,12.78,27.9,11.5,23.48c-.07-.25-.17-.48-.34-1-1.26,1.28-2.45,2.4-3.51,3.62a2.55,2.55,0,0,0-.28,1.52c0,3,0,6,.05,8.93,0,1.11-.35,1.5-1.46,1.43-1.51-.09-3-.06-4.53-.06-1,0-1.43-.32-1.43-1.4Q0,21,0,5.47A1.27,1.27,0,0,1,1.13,4C2.77,3.62,4.42,3.24,6,2.72c1.19-.38,1.4.1,1.39,1.12,0,3.73,0,7.47,0,11.2,0,.26,0,.52,0,.78Z"/><path class="cls-1" d="M26.68,0l6,1.18c1.82.36,3.64.74,5.47,1.06.72.13.95.39.83,1.16q-1.66,10.49-3.24,21c-.39,2.58-.76,5.16-1.14,7.74a4.91,4.91,0,0,1-.17.61l-.4.06Z"/><path class="cls-1" d="M33.77,34.95c.66.13,1.72.06,1.93.44.67,1.27,1.68,2.92,1.32,4a4.26,4.26,0,0,1-3.39,2.34c-1.3-.13-2.47-1.7-3.69-2.65a22.36,22.36,0,0,1,1.69-3.72C31.9,35,33,35.08,33.77,34.95Z"/></svg>