<?xml version="1.0" encoding="iso-8859-1"?>
<!-- Generator: Adobe Illustrator 19.0.0, SVG Export Plug-In . SVG Version: 6.00 Build 0)  -->
<svg version="1.1" id="Layer_1" xmlns="http://www.w3.org/2000/svg" xmlns:xlink="http://www.w3.org/1999/xlink" x="0px" y="0px"
	 viewBox="0 0 512 512" style="enable-background:new 0 0 512 512;" xml:space="preserve">
<g>
	<g>
		<path d="M467.881,128.545c-33.121,0-54.469,35.359-39.051,64.614l-88.092,104.508c-8.906-3.102-18.871-3.364-28.4-0.185
			l-87.696-104.037c15.687-29.25-5.632-64.9-38.905-64.9c-32.976,0-54.377,35.107-39.171,64.381L58.346,297.584
			C29.71,287.798,0,309.24,0,339.336c0,24.328,19.792,44.119,44.119,44.119c33.121,0,54.469-35.359,39.051-64.614l88.092-104.508
			c8.902,3.101,18.868,3.366,28.4,0.185l87.696,104.037c-15.687,29.25,5.632,64.9,38.905,64.9c32.976,0,54.377-35.107,39.171-64.381
			l88.219-104.658C482.291,224.202,512,202.76,512,172.664C512,148.336,492.208,128.545,467.881,128.545z"/>
	</g>
</g>
<g>
</g>
<g>
</g>
<g>
</g>
<g>
</g>
<g>
</g>
<g>
</g>
<g>
</g>
<g>
</g>
<g>
</g>
<g>
</g>
<g>
</g>
<g>
</g>
<g>
</g>
<g>
</g>
<g>
</g>
</svg>
