<svg id="Layer_1" data-name="Layer 1" xmlns="http://www.w3.org/2000/svg" viewBox="0 0 36.09 37.6"><defs><style>.cls-1{fill:#010101;}.cls-2{fill:#fff;}</style></defs><title>Mapa</title><path class="cls-1" d="M0,7v29.3a.86.86,0,0,0,1.23.78l10.24-4.84a.86.86,0,0,1,.7,0l12.39,5.28a.86.86,0,0,0,.71,0l10.33-5a.86.86,0,0,0,.49-.77V2.43a.86.86,0,0,0-1.28-.75L25.54,6.95a.86.86,0,0,1-.82,0L11.6.1a.86.86,0,0,0-.84,0L.42,6.28A.86.86,0,0,0,0,7Z"/><rect class="cls-2" x="10.33" y="0.12" width="0.86" height="32.14"/><rect class="cls-2" x="24.27" y="6.96" width="0.86" height="30.46"/></svg>