<svg id="Layer_1" data-name="Layer 1" xmlns="http://www.w3.org/2000/svg" viewBox="0 0 33.37 48.14"><defs><style>.cls-1{fill:#231f20;}</style></defs><title>História</title><rect class="cls-1" x="0.41" y="0.43" width="29.29" height="37.66" rx="5" ry="5"/><path class="cls-1" d="M12.56,48.14a1.19,1.19,0,0,1-.89-.41l-1.8-2a.4.4,0,0,0-.6,0l-1.8,2A1.18,1.18,0,0,1,6.13,48a1.28,1.28,0,0,1-.77-1.2V35.65a1.26,1.26,0,0,1,1.22-1.29h6a1.26,1.26,0,0,1,1.22,1.29v11.2A1.28,1.28,0,0,1,13,48,1.18,1.18,0,0,1,12.56,48.14Zm0-12.92h-6a.42.42,0,0,0-.41.43v11.2a.42.42,0,0,0,.26.4.39.39,0,0,0,.45-.11l1.8-2a1.2,1.2,0,0,1,.89-.41h0a1.2,1.2,0,0,1,.89.41l1.8,2a.38.38,0,0,0,.45.11.42.42,0,0,0,.26-.4V35.65a.42.42,0,0,0-.41-.43Z"/><path class="cls-1" d="M28.88,38.52H4.49A4.62,4.62,0,0,1,0,33.79V4.73A4.62,4.62,0,0,1,4.49,0H28.88a4.62,4.62,0,0,1,4.49,4.73V33.79A4.62,4.62,0,0,1,28.88,38.52ZM4.49.86A3.78,3.78,0,0,0,.82,4.73V33.79a3.78,3.78,0,0,0,3.67,3.87H28.88a3.78,3.78,0,0,0,3.67-3.87V4.73A3.78,3.78,0,0,0,28.88.86Z"/></svg>